<?xml version="1.0" encoding="UTF-8" standalone="no"?>
<!-- Generator: Adobe Illustrator 19.0.0, SVG Export Plug-In . SVG Version: 6.00 Build 0)  -->

<svg
   xmlns:dc="http://purl.org/dc/elements/1.1/"
   xmlns:cc="http://creativecommons.org/ns#"
   xmlns:rdf="http://www.w3.org/1999/02/22-rdf-syntax-ns#"
   xmlns:svg="http://www.w3.org/2000/svg"
   xmlns="http://www.w3.org/2000/svg"
   xmlns:sodipodi="http://sodipodi.sourceforge.net/DTD/sodipodi-0.dtd"
   xmlns:inkscape="http://www.inkscape.org/namespaces/inkscape"
   version="1.1"
   id="Layer_1"
   x="0px"
   y="0px"
   viewBox="0 0 512.001 512.001"
   style="enable-background:new 0 0 512.001 512.001;"
   xml:space="preserve"
   sodipodi:docname="fennec.svg"
   inkscape:version="0.92.3 (2405546, 2018-03-11)"><metadata
   id="metadata61"><rdf:RDF><cc:Work
       rdf:about=""><dc:format>image/svg+xml</dc:format><dc:type
         rdf:resource="http://purl.org/dc/dcmitype/StillImage" /></cc:Work></rdf:RDF></metadata><defs
   id="defs59" /><sodipodi:namedview
   pagecolor="#ffffff"
   bordercolor="#666666"
   borderopacity="1"
   objecttolerance="10"
   gridtolerance="10"
   guidetolerance="10"
   inkscape:pageopacity="0"
   inkscape:pageshadow="2"
   inkscape:window-width="2174"
   inkscape:window-height="986"
   id="namedview57"
   showgrid="false"
   inkscape:zoom="0.46093662"
   inkscape:cx="3.2542435"
   inkscape:cy="256.00049"
   inkscape:window-x="51"
   inkscape:window-y="27"
   inkscape:window-maximized="0"
   inkscape:current-layer="layer2" />
<g
   inkscape:groupmode="layer"
   id="layer2"
   inkscape:label="Layer 2"><rect
     style="fill:#008aff;fill-opacity:1;stroke:#000000;stroke-opacity:1"
     id="rect4575"
     width="522.84845"
     height="522.84845"
     x="-4.3389912"
     y="-4.3389912" /></g><path
   style="fill:#ffcd9b;stroke-width:0.78389937"
   d="m 368.19375,297.7368 c 0,48.11339 -61.65055,81.14377 -104.54083,81.14377 -42.89027,0 -104.54082,-33.03038 -104.54082,-81.14377 0,-48.1134 46.80507,-74.17413 104.54082,-74.17413 57.73576,0 104.54083,26.05995 104.54083,74.17413 z"
   id="path2"
   inkscape:connector-curvature="0" />
<path
   style="fill:#ffbe64;stroke-width:0.78389937"
   d="m 263.65371,223.56267 c -38.68936,0 -72.38841,4.6156 -90.46591,30.64968 l 20.77177,5.19255 c 69.69414,34.84668 48.78597,69.69414 48.78597,69.69414 h 20.90817 20.90816 c 0,0 -20.90816,-34.84668 48.78598,-69.69414 l 20.77177,-5.19255 c -18.07751,-26.03408 -51.77656,-30.64968 -90.46591,-30.64968 z"
   id="path4"
   inkscape:connector-curvature="0" />
<ellipse
   style="fill:#ffcd9b;stroke-width:0.78389937"
   cx="263.65527"
   cy="370.91302"
   rx="25.885925"
   ry="20.908165"
   id="ellipse6" />
<path
   style="fill:#ffdeb7;stroke-width:0.78389937"
   d="m 285.64365,320.50515 c -11.17683,-12.16298 -32.80305,-12.16298 -43.9791,0 -9.86773,10.73864 -19.32861,24.94838 -19.32861,39.95535 0,9.62237 11.09923,17.42295 24.79082,17.42295 6.37859,0 12.13398,-1.74104 16.52773,-4.52231 4.39376,2.78127 10.14915,4.52231 16.52774,4.52231 13.69158,0 24.79082,-7.80058 24.79082,-17.42295 -0.002,-15.00697 -9.46167,-29.21671 -19.3294,-39.95535 z"
   id="path8"
   inkscape:connector-curvature="0" />
<g
   id="g14"
   transform="matrix(0.78389939,0,0,0.78389939,62.9151,45.561849)">
	<circle
   style="fill:#464655"
   cx="206.545"
   cy="350.90601"
   r="16.511"
   id="circle10" />
	<circle
   style="fill:#464655"
   cx="305.612"
   cy="350.90601"
   r="16.511"
   id="circle12" />
</g>
<path
   style="fill:#ff9f82;stroke-width:0.78389937"
   d="m 165.48912,286.36398 c 4.25658,1.7042 9.1293,1.38202 13.01665,-0.69845 16.75429,-8.9584 54.09141,-46.57303 47.04808,-58.17553 C 194.30213,176.01133 144.72755,113.87476 90.307681,101.30494 55.780048,93.329542 58.972086,160.85777 72.29916,214.16293 c 7.222065,28.88512 41.99428,51.70444 93.18996,72.20105 z"
   id="path16"
   inkscape:connector-curvature="0" />
<ellipse
   style="fill:#464655;stroke-width:0.78389937"
   cx="263.65527"
   cy="354.00589"
   rx="12.942963"
   ry="9.7070265"
   id="ellipse18" />
<path
   style="fill:#ffcd9b;stroke-width:0.78389937"
   d="m 203.83043,265.13912 c 13.90402,-13.98633 26.00116,-30.60421 21.7242,-37.64833 -31.25172,-51.47868 -80.8263,-113.61524 -135.246166,-126.18507 -4.438438,-1.02613 -8.243486,-0.7839 -11.493532,0.49542 81.294288,18.21626 119.264028,132.29478 125.015498,163.33798 z"
   id="path20"
   inkscape:connector-curvature="0" />
<path
   style="fill:#ff9f82;stroke-width:0.78389937"
   d="m 361.69836,286.36398 c -4.25658,1.7042 -9.1293,1.38202 -13.01665,-0.69845 -16.75428,-8.9584 -54.09141,-46.57303 -47.04808,-58.17553 31.25172,-51.47789 80.8263,-113.61524 135.24617,-126.18506 34.52763,-7.975398 31.33559,59.55283 18.00852,112.85799 -7.22207,28.88512 -41.99506,51.70444 -93.18996,72.20105 z"
   id="path22"
   inkscape:connector-curvature="0" />
<path
   style="fill:#ffcd9b;stroke-width:0.78389937"
   d="m 323.35705,265.13912 c -13.90402,-13.98633 -26.00115,-30.60421 -21.7242,-37.64833 31.25172,-51.47868 80.8263,-113.61524 135.24616,-126.18507 4.43844,-1.02613 8.24349,-0.7839 11.49353,0.49542 -81.29428,18.21626 -119.26323,132.29478 -125.01549,163.33798 z"
   id="path24"
   inkscape:connector-curvature="0" />
<g
   id="g26">
</g>
<g
   id="g28">
</g>
<g
   id="g30">
</g>
<g
   id="g32">
</g>
<g
   id="g34">
</g>
<g
   id="g36">
</g>
<g
   id="g38">
</g>
<g
   id="g40">
</g>
<g
   id="g42">
</g>
<g
   id="g44">
</g>
<g
   id="g46">
</g>
<g
   id="g48">
</g>
<g
   id="g50">
</g>
<g
   id="g52">
</g>
<g
   id="g54">
</g>
<g
   inkscape:groupmode="layer"
   id="layer1"
   inkscape:label="Layer 1"
   style="display:inline" /></svg>